# xmcd CD database file
#
# Track frame offsets:
#	150
#	19017
#	35819
#	53969
#	72209
#	92714
#	112187
#	127989
#	142757
#	163650
#
# Disc length: 2453 seconds
#
# Revision: 3
# Processed by: cddbd v1.5.2PL0 Copyright (c) Steve Scherf et al.
# Submitted via: jetAudio 5
#
DISCID=8709930a
DTITLE=Various Artist - Amazing Grace
DYEAR=1900
DGENRE=
TTITLE0=Lari White-Amazing  Grace
TTITLE1=John Anderson--Peace in the Valley
TTITLE2=John Berry--Blessed Assurance
TTITLE3=Martina McBride--How great Thou Art
TTITLE4=Bily Dean and Susan Ashton--In The Garden
TTITLE5=Paul Overstreet--Mansion Over The Hilltop
TTITLE6=Shenandoah--Beulah Land
TTITLE7=Allison Krauss and the Cox Family--I'd Rather Have Jesus
TTITLE8=Charlie Daniels Band--Kneel at the Cross
TTITLE9=Emmilou Harris--Precious Memories
EXTD=Genre is Southern Gospel performed by various country artists
EXTT0=
EXTT1=
EXTT2=
EXTT3=
EXTT4=
EXTT5=
EXTT6=
EXTT7=
EXTT8=
EXTT9=
PLAYORDER=
